<svg width="25" height="24" viewBox="0 0 25 24" fill="none" xmlns="http://www.w3.org/2000/svg">
<g id="ic_fav">
<g id="Group">
<path id="Vector" d="M3.32109 12.794C2.3705 11.6855 1.82089 10.2891 1.76087 8.83005C1.70084 7.37097 2.13389 5.93418 2.99022 4.75129C3.84654 3.5684 5.07625 2.70833 6.48111 2.30971C7.88596 1.9111 9.38413 1.99717 10.7341 2.55404H10.7321L6.49009 6.79804L7.90409 8.21204L12.1461 3.97004C13.365 2.75098 15.0183 2.06606 16.7422 2.06597C18.4662 2.06587 20.1195 2.75061 21.3386 3.96954C22.5577 5.18848 23.2426 6.84176 23.2427 8.56569C23.2428 10.2896 22.558 11.943 21.3391 13.162L12.5001 22L3.30809 12.808L3.32109 12.794Z" fill="#333333"/>
</g>
</g>
</svg>
