<svg width="22" height="20" viewBox="0 0 22 20" fill="none" xmlns="http://www.w3.org/2000/svg">
<path d="M1.82109 10.794C0.870499 9.68544 0.320893 8.28908 0.260867 6.83C0.200842 5.37092 0.633895 3.93413 1.49022 2.75124C2.34654 1.56835 3.57625 0.708279 4.98111 0.309665C6.38596 -0.0889486 7.88413 -0.00287941 9.23409 0.553999H9.23209L4.99009 4.798L6.40409 6.212L10.6461 1.97C11.865 0.750931 13.5183 0.0660135 15.2422 0.0659198C16.9662 0.065826 18.6195 0.750564 19.8386 1.9695C21.0577 3.18843 21.7426 4.84172 21.7427 6.56565C21.7428 8.28957 21.058 9.94293 19.8391 11.162L11.0001 20L1.80809 10.808L1.82109 10.794Z" fill="white"/>
</svg>
