<svg width="25" height="24" viewBox="0 0 25 24" fill="current" xmlns="http://www.w3.org/2000/svg">
<g id="Group">
<path id="Vector" d="M21.6792 12.794L21.6922 12.808L12.5002 22L3.30821 12.808L3.32121 12.794C2.25378 11.5496 1.69605 9.9477 1.7598 8.30941C1.82355 6.67111 2.50406 5.11742 3.66496 3.95968C4.82587 2.80194 6.38141 2.12567 8.01987 2.06639C9.65834 2.00711 11.2587 2.5692 12.5002 3.64002C13.7417 2.5692 15.3421 2.00711 16.9806 2.06639C18.619 2.12567 20.1746 2.80194 21.3355 3.95968C22.4964 5.11742 23.1769 6.67111 23.2406 8.30941C23.3044 9.9477 22.7466 11.5496 21.6792 12.794V12.794ZM5.07521 5.38302C4.65734 5.80089 4.32587 6.29697 4.09972 6.84293C3.87357 7.3889 3.75717 7.97407 3.75717 8.56502C3.75717 9.15598 3.87357 9.74114 4.09972 10.2871C4.32587 10.8331 4.65734 11.3292 5.07521 11.747L12.5002 19.172L19.9252 11.747C20.7691 10.9031 21.2432 9.7585 21.2432 8.56502C21.2432 7.37154 20.7691 6.22694 19.9252 5.38302C19.0813 4.5391 17.9367 4.065 16.7432 4.065C15.5497 4.065 14.4051 4.5391 13.5612 5.38302L9.31821 9.62602L7.90421 8.21002L11.0662 5.04802C10.2014 4.35736 9.11246 4.0096 8.00743 4.07121C6.90241 4.13283 5.85885 4.5995 5.07621 5.38202L5.07521 5.38302Z" fill="#333333"/>
</g>
</svg>
