<svg width="24" height="24" viewBox="0 0 24 24" fill="current" xmlns="http://www.w3.org/2000/svg">
<path d="M2.82109 12.794C1.8705 11.6854 1.32089 10.2891 1.26087 8.83C1.20084 7.37092 1.63389 5.93413 2.49022 4.75124C3.34654 3.56835 4.57625 2.70828 5.98111 2.30967C7.38596 1.91105 8.88413 1.99712 10.2341 2.554H10.2321L5.99009 6.798L7.40409 8.212L11.6461 3.97C12.865 2.75093 14.5183 2.06601 16.2422 2.06592C17.9662 2.06583 19.6195 2.75056 20.8386 3.9695C22.0577 5.18843 22.7426 6.84172 22.7427 8.56565C22.7428 10.2896 22.058 11.9429 20.8391 13.162L12.0001 22L2.80809 12.808L2.82109 12.794Z" fill="white"/>
</svg>
