<svg width="25" height="24" viewBox="0 0 25 24" fill="none" xmlns="http://www.w3.org/2000/svg">
<path d="M21.679 12.794L21.692 12.808L12.5 22L3.30797 12.808L3.32097 12.794C2.25353 11.5496 1.69581 9.9477 1.75956 8.30941C1.82331 6.67111 2.50381 5.11742 3.66472 3.95968C4.82563 2.80194 6.38117 2.12567 8.01963 2.06639C9.65809 2.00711 11.2584 2.5692 12.5 3.64002C13.7415 2.5692 15.3418 2.00711 16.9803 2.06639C18.6188 2.12567 20.1743 2.80194 21.3352 3.95968C22.4961 5.11742 23.1766 6.67111 23.2404 8.30941C23.3041 9.9477 22.7464 11.5496 21.679 12.794ZM5.07497 5.38302C4.6571 5.80089 4.32563 6.29697 4.09948 6.84293C3.87333 7.3889 3.75693 7.97407 3.75693 8.56502C3.75693 9.15597 3.87333 9.74114 4.09948 10.2871C4.32563 10.8331 4.6571 11.3292 5.07497 11.747L12.5 19.172L19.925 11.747C20.7689 10.9031 21.243 9.7585 21.243 8.56502C21.243 7.37154 20.7689 6.22694 19.925 5.38302C19.081 4.5391 17.9364 4.065 16.743 4.065C15.5495 4.065 14.4049 4.5391 13.561 5.38302L9.31797 9.62602L7.90397 8.21002L11.066 5.04802C10.2012 4.35736 9.11221 4.0096 8.00719 4.07121C6.90217 4.13283 5.85861 4.5995 5.07597 5.38202L5.07497 5.38302Z" fill="#333333"/>
</svg>
