<svg width="24" height="24" viewBox="0 0 24 24" fill="none" xmlns="http://www.w3.org/2000/svg">
<path fill-rule="evenodd" clip-rule="evenodd" d="M6.43412 8.05683C6.76243 6.68214 8.29282 4.00098 11.9321 4C15.5714 4.00098 17.1018 6.68214 17.4301 8.05683V15C17.4301 15.087 17.4528 15.1725 17.496 15.2481L19.0685 18H11.9341H11.9301H4.79571L6.36824 15.2481C6.41141 15.1725 6.43412 15.087 6.43412 15V8.05683ZM11.9301 19H3.93412V18.5L3.5 18.2519L5.43412 14.8672V8C5.43412 7.96352 5.43811 7.92715 5.44603 7.89154C5.81077 6.25022 7.61989 3.002 11.9301 3C11.9315 3 11.9328 3 11.9341 3C11.9328 3 11.9315 3 11.9301 3M11.9341 19H19.9301V18.5L20.3643 18.2519L18.4301 14.8672V8C18.4301 7.96352 18.4261 7.92715 18.4182 7.89154C18.0535 6.25022 16.2444 3.002 11.9341 3M11.9301 19H11.9341Z" fill="#666666"/>
<path fill-rule="evenodd" clip-rule="evenodd" d="M9.5 19C9.73164 20.1411 10.7405 21 11.95 21C13.1595 21 14.1683 20.1411 14.4 19H13.3646C13.1587 19.5826 12.6031 20 11.95 20C11.2969 20 10.7413 19.5826 10.5353 19H9.5Z" fill="#666666"/>
</svg>
