<svg width="25" height="24" viewBox="0 0 25 24" fill="none" xmlns="http://www.w3.org/2000/svg">
<path d="M13.62 17.023L9.42096 14.733C8.87276 15.319 8.16095 15.7266 7.37803 15.9028C6.59512 16.0791 5.77731 16.0157 5.03088 15.721C4.28445 15.4263 3.64392 14.9139 3.19253 14.2504C2.74114 13.5869 2.49976 12.803 2.49976 12.0005C2.49976 11.198 2.74114 10.414 3.19253 9.75051C3.64392 9.08701 4.28445 8.57461 5.03088 8.27992C5.77731 7.98523 6.59512 7.92187 7.37803 8.09807C8.16095 8.27428 8.87276 8.6819 9.42096 9.26796L13.621 6.97796C13.3825 6.03403 13.4965 5.03555 13.9416 4.16966C14.3867 3.30378 15.1323 2.62994 16.0386 2.27446C16.945 1.91898 17.9499 1.90626 18.8649 2.23869C19.78 2.57112 20.5424 3.22588 21.0093 4.08022C21.4761 4.93457 21.6153 5.92985 21.4009 6.8795C21.1864 7.82916 20.6329 8.668 19.8442 9.23877C19.0555 9.80954 18.0857 10.0731 17.1166 9.97995C16.1475 9.88684 15.2456 9.44347 14.58 8.73296L10.38 11.023C10.5412 11.6643 10.5412 12.3356 10.38 12.977L14.579 15.267C15.2446 14.5564 16.1464 14.1131 17.1156 14.02C18.0847 13.9268 19.0545 14.1904 19.8432 14.7611C20.6319 15.3319 21.1854 16.1708 21.3999 17.1204C21.6143 18.0701 21.4751 19.0654 21.0083 19.9197C20.5414 20.774 19.779 21.4288 18.8639 21.7612C17.9489 22.0937 16.944 22.0809 16.0376 21.7255C15.1313 21.37 14.3857 20.6961 13.9406 19.8303C13.4955 18.9644 13.3815 17.9659 13.62 17.022V17.023ZM6.49996 14C7.0304 14 7.5391 13.7892 7.91418 13.4142C8.28925 13.0391 8.49996 12.5304 8.49996 12C8.49996 11.4695 8.28925 10.9608 7.91418 10.5857C7.5391 10.2107 7.0304 9.99996 6.49996 9.99996C5.96953 9.99996 5.46082 10.2107 5.08575 10.5857C4.71068 10.9608 4.49996 11.4695 4.49996 12C4.49996 12.5304 4.71068 13.0391 5.08575 13.4142C5.46082 13.7892 5.96953 14 6.49996 14ZM17.5 7.99996C18.0304 7.99996 18.5391 7.78925 18.9142 7.41417C19.2892 7.0391 19.5 6.53039 19.5 5.99996C19.5 5.46953 19.2892 4.96082 18.9142 4.58575C18.5391 4.21067 18.0304 3.99996 17.5 3.99996C16.9695 3.99996 16.4608 4.21067 16.0857 4.58575C15.7107 4.96082 15.5 5.46953 15.5 5.99996C15.5 6.53039 15.7107 7.0391 16.0857 7.41417C16.4608 7.78925 16.9695 7.99996 17.5 7.99996ZM17.5 20C18.0304 20 18.5391 19.7892 18.9142 19.4142C19.2892 19.0391 19.5 18.5304 19.5 18C19.5 17.4695 19.2892 16.9608 18.9142 16.5857C18.5391 16.2107 18.0304 16 17.5 16C16.9695 16 16.4608 16.2107 16.0857 16.5857C15.7107 16.9608 15.5 17.4695 15.5 18C15.5 18.5304 15.7107 19.0391 16.0857 19.4142C16.4608 19.7892 16.9695 20 17.5 20Z" fill="#333333"/>
</svg>
